# xmcd CD database file
#
# Track frame offsets:
#	183
#	21458
#	37393
#	52168
#	72420
#	82398
#	101333
#	115700
#	136948
#	152180
#	163263
#	174628
#	190925
#	209578
#	225913
#	244223
#	256890
#	275320
#
# Disc length: 3897 seconds
#
# Revision: 0
# Processed by: cddbd v1.5.1PL0 Copyright (c) Steve Scherf et al.
# Submitted via: CDex 1.51
#
DISCID=0e0f3712
DTITLE=MAVIS STAPLES - The best of
DYEAR=1900
DGENRE=Blues
TTITLE0=I'll take you there
TTITLE1=This world
TTITLE2=Good to me
TTITLE3=If you're ready
TTITLE4=My main man
TTITLE5=If it wasn't for a woman
TTITLE6=The dock of the bay
TTITLE7=This old town
TTITLE8=How many times
TTITLE9=Don't change me now
TTITLE10=Love is plentiful
TTITLE11=Oh la de da
TTITLE12=A child's life
TTITLE13=Since i fell for you
TTITLE14=Touch a hand
TTITLE15=Security
TTITLE16=This time around
TTITLE17=I believe in music
EXTD=
EXTT0=
EXTT1=
EXTT2=
EXTT3=
EXTT4=
EXTT5=
EXTT6=
EXTT7=
EXTT8=
EXTT9=
EXTT10=
EXTT11=
EXTT12=
EXTT13=
EXTT14=
EXTT15=
EXTT16=
EXTT17=
PLAYORDER=
